<svg xmlns="http://www.w3.org/2000/svg" viewBox="0 0 32 32">
  <defs>
    <linearGradient id="grad" x1="0%" y1="0%" x2="100%" y2="100%">
      <stop offset="0%" style="stop-color:#8A2BE2;stop-opacity:1" />
      <stop offset="100%" style="stop-color:#A855F7;stop-opacity:1" />
    </linearGradient>
  </defs>
  <circle cx="16" cy="16" r="15" fill="url(#grad)"/>
  <path d="M16 24.5c-.3 0-.5-.1-.7-.3C14.6 23.5 9 18.5 9 14.5c0-2.8 2.2-5 5-5 1.5 0 2.9.7 3.8 1.8.1.1.2.2.2.2s.1-.1.2-.2c.9-1.1 2.3-1.8 3.8-1.8 2.8 0 5 2.2 5 5 0 4-5.6 9-6.3 9.7-.2.2-.4.3-.7.3z" fill="white"/>
  <path d="M11 13.5c0 .3.2.5.5.5s.5-.2.5-.5c0-1.1.9-2 2-2 .3 0 .5-.2.5-.5s-.2-.5-.5-.5c-1.7 0-3 1.3-3 3z" fill="rgba(255,255,255,0.6)"/>
</svg>
